<?xml version="1.0" encoding="utf-8"?>
<!-- Generator: Adobe Illustrator 16.0.0, SVG Export Plug-In . SVG Version: 6.00 Build 0)  -->
<!DOCTYPE svg PUBLIC "-//W3C//DTD SVG 1.1//EN" "http://www.w3.org/Graphics/SVG/1.1/DTD/svg11.dtd">
<svg version="1.1" id="Layer_1" xmlns="http://www.w3.org/2000/svg" xmlns:xlink="http://www.w3.org/1999/xlink" x="0px" y="0px"
	 width="508.684px" height="105.057px" viewBox="0 0 508.684 105.057" enable-background="new 0 0 508.684 105.057"
	 xml:space="preserve">
<g id="Layer_2" display="none">
	<rect x="-2.456" y="-6.635" display="inline" width="516.5" height="116.5"/>
</g>
<g id="Layer_1_1_">
	<path opacity="0.8" fill="#303135" enable-background="new    " d="M92.615,29.309c0-2.176-1.161-4.186-3.044-5.271L49.352,0.816
		C48.41,0.272,47.359,0,46.308,0c-1.052,0-2.103,0.271-3.044,0.814L3.044,24.036C1.161,25.124,0,27.134,0,29.31l0.001,46.439
		c0,2.175,1.161,4.186,3.044,5.271l40.217,23.222c0.941,0.544,1.993,0.814,3.044,0.814c1.051,0,2.103-0.271,3.044-0.814
		L89.571,81.02c1.884-1.087,3.044-3.098,3.044-5.271V29.309z M15.321,31.124h61.973l-30.986,17.89L15.321,31.124z M43.263,54.286
		V88.02L12.565,36.564L43.263,54.286z M49.351,97.211l0.001-39.41l34.13,19.705L49.351,97.211z M52.396,52.529l34.13-19.703
		l0.001,39.408L52.396,52.529z M46.308,6.088l32.817,18.947H13.49L46.308,6.088z M6.088,37.591l34.723,58.205L6.09,75.749
		L6.088,37.591z"/>
	<g opacity="0.8" enable-background="new    ">
		<path fill="#303135" d="M118.298,75.382h-11.826V30.938h26.265v9.637h-14.439v8.481h13.315v9.637h-13.315V75.382z"/>
		<path fill="#303135" d="M177.82,30.938V57.69c0,5.816-1.646,10.32-4.94,13.513c-3.293,3.191-8.041,4.788-14.242,4.788
			c-6.06,0-10.716-1.551-13.969-4.651c-3.252-3.101-4.879-7.56-4.879-13.376V30.938h12.069v26.083c0,3.142,0.587,5.422,1.763,6.84
			c1.175,1.419,2.908,2.128,5.198,2.128c2.452,0,4.23-0.704,5.335-2.112c1.104-1.409,1.657-3.714,1.657-6.916V30.938H177.82z"/>
		<path fill="#303135" d="M187.153,75.382V30.938h12.008v34.747h17.115v9.697H187.153z"/>
		<path fill="#303135" d="M223.39,75.382V30.938h12.008v34.747h17.115v9.697H223.39z"/>
		<path fill="#303135" d="M288.688,61.885c0,2.756-0.699,5.203-2.098,7.341c-1.398,2.139-3.414,3.8-6.049,4.986
			c-2.635,1.186-5.726,1.778-9.271,1.778c-2.96,0-5.441-0.208-7.448-0.624c-2.007-0.415-4.095-1.14-6.263-2.173V62.492
			c2.29,1.176,4.672,2.093,7.145,2.751c2.472,0.659,4.742,0.988,6.809,0.988c1.783,0,3.091-0.309,3.922-0.927
			s1.246-1.414,1.246-2.387c0-0.608-0.166-1.14-0.501-1.596s-0.872-0.917-1.611-1.384c-0.74-0.466-2.711-1.418-5.913-2.857
			c-2.898-1.317-5.072-2.594-6.521-3.83c-1.449-1.236-2.522-2.655-3.222-4.256s-1.049-3.496-1.049-5.685
			c0-4.094,1.489-7.286,4.469-9.576c2.979-2.29,7.072-3.436,12.281-3.436c4.6,0,9.291,1.064,14.074,3.192l-3.678,9.271
			c-4.154-1.904-7.742-2.857-10.762-2.857c-1.561,0-2.695,0.273-3.404,0.821c-0.71,0.547-1.064,1.226-1.064,2.036
			c0,0.872,0.451,1.652,1.354,2.341c0.9,0.689,3.348,1.945,7.341,3.77c3.831,1.723,6.491,3.572,7.979,5.548
			C287.943,56.398,288.688,58.885,288.688,61.885z"/>
		<path fill="#303135" d="M315.166,75.382h-12.008V40.757h-10.853v-9.819h33.683v9.819h-10.822V75.382z"/>
		<path fill="#303135" d="M359.611,75.382l-2.189-8.329h-14.439l-2.25,8.329h-13.193l14.5-44.627h16.021l14.684,44.627H359.611z
			 M354.93,57.203l-1.916-7.296c-0.445-1.621-0.988-3.719-1.626-6.293c-0.638-2.573-1.06-4.418-1.262-5.533
			c-0.183,1.034-0.542,2.736-1.079,5.107s-1.729,7.043-3.572,14.015H354.93z"/>
		<path fill="#303135" d="M397.337,40.149c-2.857,0-5.087,1.171-6.688,3.512c-1.601,2.34-2.4,5.568-2.4,9.682
			c0,8.553,3.252,12.829,9.758,12.829c1.965,0,3.871-0.273,5.715-0.821c1.844-0.547,3.699-1.205,5.563-1.976v10.153
			c-3.709,1.642-7.903,2.463-12.585,2.463c-6.709,0-11.852-1.946-15.428-5.837c-3.578-3.892-5.366-9.516-5.366-16.872
			c0-4.601,0.866-8.644,2.599-12.13c1.733-3.485,4.227-6.166,7.479-8.04c3.253-1.875,7.078-2.812,11.477-2.812
			c4.803,0,9.393,1.044,13.771,3.131l-3.679,9.455c-1.641-0.771-3.283-1.419-4.924-1.946
			C400.984,40.412,399.222,40.149,397.337,40.149z"/>
		<path fill="#303135" d="M455.917,75.382h-13.559l-8.785-16.993l-3.557,2.128v14.865h-12.069V30.938h12.069v19.304
			c0.607-1.195,1.834-3.09,3.678-5.685l9.333-13.619h13.133L442.146,50.85L455.917,75.382z"/>
	</g>
	<g opacity="0.8" enable-background="new    ">
		<path fill="#303135" d="M466.104,69.053c0,0.589-0.1,1.191-0.299,1.809s-0.484,1.178-0.854,1.681s-0.812,0.915-1.324,1.238
			s-1.093,0.484-1.737,0.484c-0.76,0-1.349-0.256-1.766-0.769c-0.418-0.513-0.627-1.196-0.627-2.051
			c0-0.551,0.109-1.125,0.328-1.724c0.217-0.598,0.521-1.144,0.91-1.638c0.39-0.493,0.841-0.901,1.354-1.225
			c0.513-0.322,1.072-0.484,1.681-0.484c0.702,0,1.267,0.247,1.694,0.741C465.891,67.61,466.104,68.255,466.104,69.053z"/>
		<path fill="#303135" d="M482.681,71.331c-0.894,0.532-1.694,0.997-2.407,1.396c-0.711,0.399-1.362,0.735-1.951,1.012
			c-0.588,0.274-1.12,0.479-1.594,0.612c-0.476,0.132-0.922,0.199-1.34,0.199c-0.646,0-1.158-0.299-1.537-0.897
			c-0.381-0.598-0.57-1.41-0.57-2.436c0-0.569,0.071-1.381,0.214-2.435s0.317-2.222,0.526-3.504c0.209-1.281,0.438-2.62,0.684-4.016
			c0.247-1.396,0.475-2.725,0.684-3.987s0.385-2.388,0.527-3.375s0.214-1.709,0.214-2.165c0-0.437-0.028-0.783-0.085-1.039
			c-0.058-0.257-0.134-0.446-0.229-0.57c-0.096-0.123-0.219-0.204-0.37-0.242c-0.152-0.037-0.313-0.057-0.484-0.057
			c-0.152,0-0.384,0.033-0.698,0.1c-0.312,0.066-0.631,0.147-0.953,0.242c-0.361,0.095-0.76,0.209-1.197,0.342l-0.398-1.054
			c0.797-0.36,1.59-0.707,2.379-1.04c0.787-0.332,1.523-0.621,2.207-0.868s1.281-0.446,1.794-0.599
			c0.513-0.151,0.893-0.228,1.14-0.228c0.531,0,0.906,0.181,1.125,0.541c0.218,0.361,0.328,0.979,0.328,1.852
			c0,0.551-0.072,1.362-0.215,2.435c-0.143,1.073-0.327,2.274-0.555,3.604c-0.229,1.329-0.466,2.72-0.713,4.173
			c-0.246,1.452-0.483,2.844-0.711,4.173c-0.229,1.329-0.414,2.53-0.556,3.603c-0.143,1.073-0.214,1.885-0.214,2.436
			c0,0.589,0.062,1.016,0.186,1.281c0.123,0.267,0.346,0.398,0.669,0.398c0.589,0,1.153-0.075,1.694-0.228
			c0.541-0.151,1.201-0.389,1.98-0.712L482.681,71.331z M483.449,37.438c0,0.531-0.08,1.059-0.242,1.581
			c-0.161,0.522-0.395,0.996-0.697,1.424c-0.305,0.427-0.674,0.773-1.111,1.039c-0.437,0.267-0.921,0.399-1.452,0.399
			c-0.589,0-1.044-0.171-1.367-0.513s-0.484-0.836-0.484-1.481c0-0.513,0.085-1.029,0.257-1.552c0.17-0.522,0.408-1.002,0.712-1.438
			s0.669-0.793,1.097-1.068c0.427-0.275,0.906-0.413,1.438-0.413c0.589,0,1.045,0.176,1.367,0.527
			C483.288,36.294,483.449,36.792,483.449,37.438z"/>
		<path fill="#303135" d="M507.176,57.46c0,1.272-0.143,2.56-0.428,3.859c-0.285,1.301-0.703,2.563-1.254,3.788
			s-1.229,2.393-2.035,3.504c-0.809,1.11-1.743,2.103-2.807,2.977c-0.494,0.398-1.016,0.778-1.566,1.139
			c-0.551,0.361-1.11,0.679-1.68,0.954c-0.57,0.275-1.149,0.489-1.738,0.641c-0.588,0.152-1.168,0.229-1.736,0.229
			c-1.33,0-2.512-0.28-3.547-0.841c-1.035-0.56-1.908-1.328-2.62-2.307c-0.712-0.978-1.253-2.136-1.624-3.475
			c-0.369-1.339-0.555-2.786-0.555-4.344c0-1.367,0.113-2.682,0.342-3.944c0.228-1.263,0.598-2.482,1.11-3.66
			s1.196-2.308,2.051-3.39s1.909-2.126,3.161-3.133c0.969-0.76,2.032-1.405,3.19-1.937c1.158-0.532,2.325-0.798,3.503-0.798
			c1.481,0,2.744,0.266,3.789,0.798c1.043,0.531,1.894,1.271,2.549,2.221c0.654,0.95,1.135,2.08,1.438,3.39
			C507.023,54.442,507.176,55.885,507.176,57.46z M503.074,59.027c0-2.904-0.531-5.126-1.592-6.664
			c-1.062-1.538-2.568-2.308-4.52-2.308c-1.364,0-2.511,0.395-3.439,1.183c-0.928,0.788-1.677,1.78-2.244,2.976
			c-0.569,1.196-0.977,2.492-1.223,3.889c-0.246,1.396-0.369,2.701-0.369,3.916c0,1.272,0.156,2.474,0.469,3.603
			c0.312,1.13,0.748,2.118,1.307,2.963c0.56,0.845,1.213,1.514,1.961,2.008c0.749,0.494,1.559,0.74,2.432,0.74
			c0.871,0,1.652-0.194,2.344-0.584c0.691-0.389,1.307-0.911,1.848-1.566c0.54-0.655,1-1.405,1.379-2.25s0.691-1.724,0.938-2.635
			s0.426-1.822,0.54-2.734C503.017,60.651,503.074,59.806,503.074,59.027z"/>
	</g>
</g>
</svg>
